<svg xmlns="http://www.w3.org/2000/svg" viewBox="0 0 180 120" fill="none" aria-hidden="true">
  <path d="M22 14 V103 H168" stroke="#83CDD2" stroke-width="3" stroke-linecap="round" stroke-linejoin="round"/>
  <path d="M32 91 L157 30" stroke="#6FC2C9" stroke-width="4" stroke-linecap="round"/>
  <circle cx="30" cy="78" r="4" fill="#8FD5DA"/>
  <circle cx="36" cy="98" r="4" fill="#77CAD0"/>
  <circle cx="42" cy="66" r="4" fill="#A0DDE1"/>
  <circle cx="48" cy="88" r="4" fill="#8FD5DA"/>
  <circle cx="54" cy="52" r="4" fill="#77CAD0"/>
  <circle cx="58" cy="92" r="4" fill="#A0DDE1"/>
  <circle cx="66" cy="70" r="4" fill="#8FD5DA"/>
  <circle cx="70" cy="46" r="4" fill="#77CAD0"/>
  <circle cx="78" cy="86" r="4" fill="#A0DDE1"/>
  <circle cx="82" cy="58" r="4" fill="#8FD5DA"/>
  <circle cx="90" cy="38" r="4" fill="#77CAD0"/>
  <circle cx="94" cy="76" r="4" fill="#A0DDE1"/>
  <circle cx="102" cy="50" r="4" fill="#8FD5DA"/>
  <circle cx="108" cy="30" r="4" fill="#77CAD0"/>
  <circle cx="114" cy="68" r="4" fill="#A0DDE1"/>
  <circle cx="118" cy="42" r="4" fill="#8FD5DA"/>
  <circle cx="126" cy="78" r="4" fill="#77CAD0"/>
  <circle cx="132" cy="24" r="4" fill="#A0DDE1"/>
  <circle cx="138" cy="54" r="4" fill="#8FD5DA"/>
  <circle cx="144" cy="20" r="4" fill="#77CAD0"/>
  <circle cx="150" cy="44" r="4" fill="#A0DDE1"/>
  <circle cx="156" cy="26" r="4" fill="#8FD5DA"/>
  <circle cx="162" cy="48" r="4" fill="#77CAD0"/>
</svg>
