<svg xmlns="http://www.w3.org/2000/svg" viewBox="0 0 560 560" role="img" aria-label="XとYの散布図">
<rect width="560" height="560" fill="#ffffff"/>
<g font-family="'Hiragino Sans','Hiragino Kaku Gothic ProN','Yu Gothic',sans-serif" fill="#0f172a">
<line x1="64.0" y1="496.0" x2="532.0" y2="496.0" stroke="#e2e8f0" stroke-width="1"/>
<line x1="64.0" y1="496.0" x2="64.0" y2="28.0" stroke="#e2e8f0" stroke-width="1"/>
<line x1="64.0" y1="496.0" x2="64.0" y2="502.0" stroke="#0f172a" stroke-width="1.4"/>
<text x="64.0" y="518.0" text-anchor="middle" font-size="13">0</text>
<line x1="64.0" y1="496.0" x2="58.0" y2="496.0" stroke="#0f172a" stroke-width="1.4"/>
<text x="54.0" y="500.0" text-anchor="end" font-size="13">0</text>
<line x1="64.0" y1="402.4" x2="532.0" y2="402.4" stroke="#e2e8f0" stroke-width="1"/>
<line x1="157.6" y1="496.0" x2="157.6" y2="28.0" stroke="#e2e8f0" stroke-width="1"/>
<line x1="157.6" y1="496.0" x2="157.6" y2="502.0" stroke="#0f172a" stroke-width="1.4"/>
<text x="157.6" y="518.0" text-anchor="middle" font-size="13">20</text>
<line x1="64.0" y1="402.4" x2="58.0" y2="402.4" stroke="#0f172a" stroke-width="1.4"/>
<text x="54.0" y="406.4" text-anchor="end" font-size="13">20</text>
<line x1="64.0" y1="308.8" x2="532.0" y2="308.8" stroke="#e2e8f0" stroke-width="1"/>
<line x1="251.2" y1="496.0" x2="251.2" y2="28.0" stroke="#e2e8f0" stroke-width="1"/>
<line x1="251.2" y1="496.0" x2="251.2" y2="502.0" stroke="#0f172a" stroke-width="1.4"/>
<text x="251.2" y="518.0" text-anchor="middle" font-size="13">40</text>
<line x1="64.0" y1="308.8" x2="58.0" y2="308.8" stroke="#0f172a" stroke-width="1.4"/>
<text x="54.0" y="312.8" text-anchor="end" font-size="13">40</text>
<line x1="64.0" y1="215.2" x2="532.0" y2="215.2" stroke="#e2e8f0" stroke-width="1"/>
<line x1="344.8" y1="496.0" x2="344.8" y2="28.0" stroke="#e2e8f0" stroke-width="1"/>
<line x1="344.8" y1="496.0" x2="344.8" y2="502.0" stroke="#0f172a" stroke-width="1.4"/>
<text x="344.8" y="518.0" text-anchor="middle" font-size="13">60</text>
<line x1="64.0" y1="215.2" x2="58.0" y2="215.2" stroke="#0f172a" stroke-width="1.4"/>
<text x="54.0" y="219.2" text-anchor="end" font-size="13">60</text>
<line x1="64.0" y1="121.6" x2="532.0" y2="121.6" stroke="#e2e8f0" stroke-width="1"/>
<line x1="438.4" y1="496.0" x2="438.4" y2="28.0" stroke="#e2e8f0" stroke-width="1"/>
<line x1="438.4" y1="496.0" x2="438.4" y2="502.0" stroke="#0f172a" stroke-width="1.4"/>
<text x="438.4" y="518.0" text-anchor="middle" font-size="13">80</text>
<line x1="64.0" y1="121.6" x2="58.0" y2="121.6" stroke="#0f172a" stroke-width="1.4"/>
<text x="54.0" y="125.6" text-anchor="end" font-size="13">80</text>
<line x1="64.0" y1="28.0" x2="532.0" y2="28.0" stroke="#e2e8f0" stroke-width="1"/>
<line x1="532.0" y1="496.0" x2="532.0" y2="28.0" stroke="#e2e8f0" stroke-width="1"/>
<line x1="532.0" y1="496.0" x2="532.0" y2="502.0" stroke="#0f172a" stroke-width="1.4"/>
<text x="532.0" y="518.0" text-anchor="middle" font-size="13">100</text>
<line x1="64.0" y1="28.0" x2="58.0" y2="28.0" stroke="#0f172a" stroke-width="1.4"/>
<text x="54.0" y="32.0" text-anchor="end" font-size="13">100</text>
<rect x="64.0" y="28.0" width="468" height="468" fill="none" stroke="#0f172a" stroke-width="1.6"/>
<circle cx="247.4" cy="319.5" r="5" fill="#2563eb" fill-opacity="0.78"/>
<circle cx="196.4" cy="409.3" r="5" fill="#2563eb" fill-opacity="0.78"/>
<circle cx="251.5" cy="289.3" r="5" fill="#2563eb" fill-opacity="0.78"/>
<circle cx="282.7" cy="307.6" r="5" fill="#2563eb" fill-opacity="0.78"/>
<circle cx="252.3" cy="269.4" r="5" fill="#2563eb" fill-opacity="0.78"/>
<circle cx="241.9" cy="307.1" r="5" fill="#2563eb" fill-opacity="0.78"/>
<circle cx="224.8" cy="278.8" r="5" fill="#2563eb" fill-opacity="0.78"/>
<circle cx="215.4" cy="340.2" r="5" fill="#2563eb" fill-opacity="0.78"/>
<circle cx="277.5" cy="292.2" r="5" fill="#2563eb" fill-opacity="0.78"/>
<circle cx="260.9" cy="221.5" r="5" fill="#2563eb" fill-opacity="0.78"/>
<circle cx="242.5" cy="316.3" r="5" fill="#2563eb" fill-opacity="0.78"/>
<circle cx="242.2" cy="282.5" r="5" fill="#2563eb" fill-opacity="0.78"/>
<circle cx="244.1" cy="383.7" r="5" fill="#2563eb" fill-opacity="0.78"/>
<circle cx="231.6" cy="281.6" r="5" fill="#2563eb" fill-opacity="0.78"/>
<circle cx="232.5" cy="280.2" r="5" fill="#2563eb" fill-opacity="0.78"/>
<circle cx="239.2" cy="342.6" r="5" fill="#2563eb" fill-opacity="0.78"/>
<circle cx="252.1" cy="344.4" r="5" fill="#2563eb" fill-opacity="0.78"/>
<circle cx="252.4" cy="290.9" r="5" fill="#2563eb" fill-opacity="0.78"/>
<circle cx="230.9" cy="250.1" r="5" fill="#2563eb" fill-opacity="0.78"/>
<circle cx="267.8" cy="251.2" r="5" fill="#2563eb" fill-opacity="0.78"/>
<circle cx="231.8" cy="316.5" r="5" fill="#2563eb" fill-opacity="0.78"/>
<circle cx="249.0" cy="285.4" r="5" fill="#2563eb" fill-opacity="0.78"/>
<circle cx="364.7" cy="223.2" r="5" fill="#2563eb" fill-opacity="0.78"/>
<circle cx="370.7" cy="265.5" r="5" fill="#2563eb" fill-opacity="0.78"/>
<circle cx="356.7" cy="210.0" r="5" fill="#2563eb" fill-opacity="0.78"/>
<circle cx="338.2" cy="289.4" r="5" fill="#2563eb" fill-opacity="0.78"/>
<circle cx="316.4" cy="269.9" r="5" fill="#2563eb" fill-opacity="0.78"/>
<circle cx="432.7" cy="220.0" r="5" fill="#2563eb" fill-opacity="0.78"/>
<circle cx="430.0" cy="200.7" r="5" fill="#2563eb" fill-opacity="0.78"/>
<circle cx="398.8" cy="213.1" r="5" fill="#2563eb" fill-opacity="0.78"/>
<text x="298.0" y="550" text-anchor="middle" font-size="16">X</text>
<text transform="rotate(-90 22 262.0)" x="22" y="262.0" text-anchor="middle" font-size="16">Y</text>
</g></svg>